<svg width="106" height="106" viewBox="0 0 106 32" class="eos-invision-logo logo__Logo-s1e63gnd-0 jjAVLr" xmlns="http://www.w3.org/2000/svg" preserveAspectRatio="xMinYMid"><path class="inv-bug-bg" fill="#f36" d="M0 2v28c0 1.1.9 2 2 2h28c1.1 0 2-.9 2-2V2c0-1.1-.9-2-2-2H2C.9 0 0 .9 0 2z"/><path id="vision" class="inv-logo-text" fill="#f36" d="M61.7 23.5h2.9V11.4h-2.9v12.1zm26.8-12.4c-2 0-3.1 1-3.9 2.1v-1.9h-2.9v12.1h2.9v-6.9c0-1.9 1.2-3 2.8-3 1.7 0 2.7 1.1 2.7 3v6.9H93v-7.7c0-2.7-1.6-4.6-4.5-4.6zM73.2 21.4c-2.2 0-3.8-1.8-3.8-3.9 0-2.1 1.5-3.9 3.8-3.9s3.9 1.8 3.9 3.9c-.1 2.2-1.6 3.9-3.9 3.9zm0-10.3c-3.9 0-6.7 2.9-6.7 6.4 0 3.5 2.8 6.3 6.7 6.3 3.9 0 6.8-2.9 6.8-6.3-.1-3.5-2.9-6.4-6.8-6.4zm-35.8 9.2L34 11.4h-3.1l5.2 12.2h2.6l5.2-12.2h-3l-3.5 8.9zm18.4-3.9c-1.5-.5-2.8-.8-2.8-1.7 0-.7.6-1.2 1.8-1.2.5 0 1.2.1 1.8.3.1 0 .1 0 .2.1.5.1 1.7.3 2.7-1.2-1.3-.9-3.1-1.4-4.6-1.4-2.5 0-4.5 1.4-4.5 3.7 0 2.3 2.1 3.1 3.9 3.6 1.5.4 2.8.8 2.8 1.7 0 .8-.7 1.3-2 1.3-.8 0-1.7-.2-2.6-.6-.3-.1-1.6-.5-2.8 1 1.6 1.2 3.5 1.8 5.3 1.8 2.6 0 4.7-1.3 4.7-3.8.1-2.3-2-3.1-3.9-3.6zm-10.5 7.1h2.9V11.4h-2.9v12.1z"/><path class="inv-bug-text" fill="#FFF" d="M7.1 19.7c-.1.5-.2 1-.2 1.4 0 1.6.9 2.7 2.7 2.7 1.5 0 2.7-.9 3.6-2.4l-.5 2.3h3l1.7-7.2c.4-1.8 1.3-2.8 2.5-2.8 1 0 1.6.6 1.6 1.7 0 .3 0 .6-.1 1l-.9 3.3c-.1.5-.2.9-.2 1.4 0 1.6.9 2.7 2.7 2.7 1.6 0 2.8-1.1 3.5-3.6l-1.2-.5c-.6 1.7-1.1 2-1.5 2-.4 0-.6-.3-.6-.8 0-.3.1-.5.1-.9l.9-3.2c.2-.8.3-1.4.3-2 0-2.4-1.4-3.7-3.1-3.7-1.6 0-3.2 1.5-4 3l.6-2.8h-4.6l-.6 2.5H15l-1.3 5.5c-1 2.4-2.9 2.4-3.2 2.4-.4-.1-.6-.2-.6-.8 0-.3.1-.7.2-1.3l2-8.3H7l-.6 2.5h2.1l-1.4 5.9M10 6c1.1 0 2 .9 2 2s-.9 2-2 2-2-.9-2-2 .9-2 2-2z"/></svg>